<svg width="212" height="212" viewBox="0 0 212 212" fill="none" xmlns="http://www.w3.org/2000/svg">
<g id="upload">
<g id="cloud">
<path id="cloud1" d="M90.9782 122.047C90.9782 145.204 110.11 163.976 45.4891 163.976C20.3662 163.976 0 145.204 0 122.047C0 98.8901 20.3662 80.1176 45.4891 80.1176C70.612 80.1176 90.9782 98.8901 90.9782 122.047Z" fill="#BBDEFB"/>
<path id="cloud2" d="M161.421 79.0824C161.421 112.817 132.995 140.165 97.9289 140.165C62.8631 140.165 34.4366 112.817 34.4366 79.0824C34.4366 45.3475 62.8631 18 97.9289 18C132.995 18 161.421 45.3475 161.421 79.0824Z" fill="#BBDEFB"/>
<path id="cloud3" d="M212 112.909C212 139.023 189.427 163.976 161.582 163.976C77.1329 163.976 111.163 139.023 111.163 112.909C111.163 86.7938 133.736 65.6235 161.582 65.6235C189.427 65.6235 212 86.7938 212 112.909Z" fill="#BBDEFB"/>
</g>
<path id="arrow" d="M102 197.5C128.078 197.5 149.5 177.281 149.5 152C149.5 126.719 128.078 106.5 102 106.5C75.9217 106.5 54.5 126.719 54.5 152C54.5 177.281 75.9217 197.5 102 197.5Z" fill="#4CAF50" stroke="white" stroke-width="7"/>
<path id="arrow1" d="M98.5 182C98.5 183.933 100.067 185.5 102 185.5C103.933 185.5 105.5 183.933 105.5 182H98.5ZM104.475 129.525C103.108 128.158 100.892 128.158 99.5251 129.525L77.2513 151.799C75.8844 153.166 75.8844 155.382 77.2513 156.749C78.6181 158.116 80.8342 158.116 82.201 156.749L102 136.95L121.799 156.749C123.166 158.116 125.382 158.116 126.749 156.749C128.116 155.382 128.116 153.166 126.749 151.799L104.475 129.525ZM105.5 182L105.5 132H98.5L98.5 182H105.5Z" fill="white"/>
</g>
</svg>
